<svg width="107" height="286" viewBox="0 0 107 286" fill="none" xmlns="http://www.w3.org/2000/svg">
<path opacity="0.1" d="M0 53.625C-29.5002 53.625 -53.5 77.6808 -53.5 107.25C-53.5 136.819 -29.5002 160.875 0 160.875C29.5002 160.875 53.5 136.819 53.5 107.25C53.5 77.6808 29.5002 53.625 0 53.625ZM0 143C-19.6668 143 -35.6667 126.963 -35.6667 107.25C-35.6667 87.5372 -19.6668 71.5 0 71.5C19.6668 71.5 35.6667 87.5372 35.6667 107.25C35.6667 126.963 19.6668 143 0 143ZM0 0C-59.0947 0 -107 48.0173 -107 107.25C-107 150.492 -91.9698 162.568 -10.9965 280.23C-5.68325 287.923 5.68271 287.924 10.997 280.23C91.9698 162.568 107 150.492 107 107.25C107 48.0173 59.0947 0 0 0ZM0 264.735C-77.6279 152.21 -89.1667 143.276 -89.1667 107.25C-89.1667 83.3768 -79.8917 60.9331 -63.0503 44.0524C-46.209 27.1717 -23.8175 17.875 0 17.875C23.8175 17.875 46.209 27.1717 63.0503 44.0524C79.8917 60.9331 89.1667 83.3768 89.1667 107.25C89.1667 143.274 77.6352 152.2 0 264.735Z" fill="#F61067"/>
</svg>
